<?xml version="1.0" encoding="UTF-8"?>
<!DOCTYPE svg PUBLIC "-//W3C//DTD SVG 1.1//EN" "http://www.w3.org/Graphics/SVG/1.1/DTD/svg11.dtd">
<svg xmlns="http://www.w3.org/2000/svg" version="1.1" width="1390px" height="1000px" style="shape-rendering:geometricPrecision; text-rendering:geometricPrecision; image-rendering:optimizeQuality; fill-rule:evenodd; clip-rule:evenodd" xmlns:xlink="http://www.w3.org/1999/xlink">
<g><path style="opacity:0.652" fill="#f8f8f8" d="M 651.5,-0.5 C 681.833,-0.5 712.167,-0.5 742.5,-0.5C 892.8,20.3361 1004.63,97.0028 1078,229.5C 1079.8,233.082 1081.3,236.749 1082.5,240.5C 1081.81,241.774 1080.98,241.774 1080,240.5C 1079.33,241.833 1078.67,243.167 1078,244.5C 1076.64,243.62 1075.14,243.286 1073.5,243.5C 1003.3,109.359 892.967,31.8586 742.5,11C 614.945,-0.149576 504.278,37.1838 410.5,123C 367.27,164.355 334.27,212.522 311.5,267.5C 311.587,264.402 311.087,264.068 310,266.5C 308.089,266.255 306.089,266.255 304,266.5C 304.049,264.325 304.549,262.158 305.5,260C 305.43,259.235 305.097,258.735 304.5,258.5C 353.012,148.149 433.012,70.6493 544.5,26C 579.316,13.2752 614.982,4.44189 651.5,-0.5 Z M 637.5,30.5 C 647.101,32.684 650.934,38.684 649,48.5C 644.63,58.0455 638.63,59.3789 631,52.5C 626.101,42.9462 628.268,35.6128 637.5,30.5 Z M 565.5,81.5 C 567.465,81.9483 567.798,82.9483 566.5,84.5C 565.614,83.675 565.281,82.675 565.5,81.5 Z M 498.5,96.5 C 502.49,95.6155 505.323,96.9489 507,100.5C 508.098,104.505 507.265,108.005 504.5,111C 496.91,111.729 494.077,108.229 496,100.5C 496.662,99.0161 497.496,97.6828 498.5,96.5 Z M 563.5,113.5 C 568.963,114.754 570.296,117.754 567.5,122.5C 563.732,124.977 561.399,123.81 560.5,119C 560.863,116.808 561.863,114.974 563.5,113.5 Z M 917.5,160.5 C 921.689,160.182 924.855,161.848 927,165.5C 929.612,173.364 927.112,178.364 919.5,180.5C 916.312,180.144 914.145,178.477 913,175.5C 911.254,169.342 912.754,164.342 917.5,160.5 Z M 467.5,193.5 C 471.933,194.269 474.266,196.936 474.5,201.5C 473.586,208.639 470.086,210.639 464,207.5C 461.135,201.573 462.301,196.906 467.5,193.5 Z M 990.5,204.5 C 992.39,204.297 993.89,204.963 995,206.5C 995.667,208.833 995.667,211.167 995,213.5C 992.724,216.064 990.724,215.73 989,212.5C 988.282,209.593 988.782,206.926 990.5,204.5 Z M 1019.5,234.5 C 1025.19,234.554 1026.86,237.221 1024.5,242.5C 1020.82,245.327 1018.82,244.327 1018.5,239.5C 1018.59,237.742 1018.92,236.076 1019.5,234.5 Z"/></g>
<g><path style="opacity:0.621" fill="#f2f2f2" d="M 691.5,13.5 C 695.03,12.9889 698.196,13.6556 701,15.5C 701.804,28.0333 701.638,40.5333 700.5,53C 700.63,54.0588 701.13,54.8921 702,55.5C 716.112,54.3934 730.278,54.5601 744.5,56C 754.724,68.7158 764.724,81.5491 774.5,94.5C 772.924,98.0551 770.257,99.2218 766.5,98C 757.878,86.7095 748.878,75.7095 739.5,65C 723.493,64.6109 707.493,64.1109 691.5,63.5C 691.5,46.8333 691.5,30.1667 691.5,13.5 Z"/></g>
<g><path style="opacity:0.578" fill="#f6f6f6" d="M 635.5,21.5 C 653.027,23.1723 660.527,32.8389 658,50.5C 651.827,65.4422 641.66,69.2756 627.5,62C 619.093,53.4803 617.26,43.647 622,32.5C 625.336,27.2685 629.836,23.6018 635.5,21.5 Z M 637.5,30.5 C 628.268,35.6128 626.101,42.9462 631,52.5C 638.63,59.3789 644.63,58.0455 649,48.5C 650.934,38.684 647.101,32.684 637.5,30.5 Z"/></g>
<g><path style="opacity:0.61" fill="#f3f3f3" d="M 835.5,129.5 C 837.326,104.853 838.159,79.8534 838,54.5C 840.041,53.5769 842.208,53.2436 844.5,53.5C 845.57,79.8225 845.737,106.156 845,132.5C 841.596,136.242 837.93,139.576 834,142.5C 829.385,139.554 825.385,135.887 822,131.5C 791.783,98.286 761.949,64.786 732.5,31C 733.829,27.0063 736.496,25.673 740.5,27C 758.883,47.5944 777.383,68.0944 796,88.5C 799.053,85.1134 801.72,81.4467 804,77.5C 804.913,68.4236 804.58,59.4236 803,50.5C 801.98,49.1095 801.147,47.6095 800.5,46C 796.199,46.3631 791.866,46.3631 787.5,46C 783.082,40.5894 779.082,34.9228 775.5,29C 777.907,25.8217 780.907,24.9883 784.5,26.5C 786.793,30.7576 789.793,34.4242 793.5,37.5C 797.364,35.8287 801.364,35.3287 805.5,36C 807.44,40.8285 809.94,45.3285 813,49.5C 813.667,59.5 813.667,69.5 813,79.5C 809.966,85.2087 806.133,90.3754 801.5,95C 811.648,106.649 821.982,118.149 832.5,129.5C 833.425,130.562 834.425,130.562 835.5,129.5 Z"/></g>
<g><path style="opacity:0.511" fill="#f2f2f2" d="M 596.5,32.5 C 604.49,32.8115 606.49,36.4781 602.5,43.5C 594.519,45.6831 591.686,42.6831 594,34.5C 594.995,33.9341 595.828,33.2674 596.5,32.5 Z"/></g>
<g><path style="opacity:0.569" fill="#f6f6f6" d="M 579.5,42.5 C 588.068,43.2877 591.568,47.9544 590,56.5C 586.1,61.5333 581.267,62.7 575.5,60C 569.737,52.4673 571.071,46.634 579.5,42.5 Z"/></g>
<g><path style="opacity:0.639" fill="#f6f6f6" d="M 867.5,56.5 C 870.119,56.2317 872.619,56.565 875,57.5C 875.333,99.5 875.667,141.5 876,183.5C 896.667,210.833 917.333,238.167 938,265.5C 938.947,269.132 937.613,271.466 934,272.5C 932.289,272.561 930.956,271.894 930,270.5C 909,242.5 888,214.5 867,186.5C 866.173,143.096 866.339,99.7624 867.5,56.5 Z"/></g>
<g><path style="opacity:0.609" fill="#f6f6f6" d="M 889.5,68.5 C 891.167,68.5 892.833,68.5 894.5,68.5C 894.281,69.675 894.614,70.675 895.5,71.5C 902.727,79.4703 910.06,87.3037 917.5,95C 928.553,96.6873 939.386,99.1873 950,102.5C 993.093,157.016 1036.43,211.349 1080,265.5C 1080.67,266.5 1080.67,267.5 1080,268.5C 1077.59,271.775 1074.92,272.442 1072,270.5C 1030.02,217.356 987.857,164.356 945.5,111.5C 934.011,107.912 922.345,104.746 910.5,102C 903.175,93.1757 895.508,84.6757 887.5,76.5C 886.369,74.9255 886.202,73.2588 887,71.5C 888.045,70.6266 888.878,69.6266 889.5,68.5 Z"/></g>
<g><path style="opacity:0.576" fill="#f3f3f3" d="M 565.5,71.5 C 575.638,73.1139 579.138,78.7806 576,88.5C 571.261,94.082 565.761,94.9154 559.5,91C 554.205,82.0579 556.205,75.5579 565.5,71.5 Z M 565.5,81.5 C 565.281,82.675 565.614,83.675 566.5,84.5C 567.798,82.9483 567.465,81.9483 565.5,81.5 Z"/></g>
<g><path style="opacity:0.568" fill="#f5f5f5" d="M 606.5,72.5 C 620.156,73.1455 633.823,73.6455 647.5,74C 651.025,80.8813 654.691,87.7146 658.5,94.5C 656.342,97.6441 653.342,98.9774 649.5,98.5C 647.543,93.022 644.876,87.8554 641.5,83C 631.59,82.8202 621.756,82.3202 612,81.5C 608.108,86.8495 604.775,92.5162 602,98.5C 599.79,99.7488 597.624,99.5822 595.5,98C 593.789,96.8668 593.289,95.3668 594,93.5C 597.707,86.1969 601.873,79.1969 606.5,72.5 Z"/></g>
<g><path style="opacity:0.039" fill="#cdcdcd" d="M 844.5,53.5 C 842.208,53.2436 840.041,53.5769 838,54.5C 838.159,79.8534 837.326,104.853 835.5,129.5C 836.162,104.235 836.329,78.902 836,53.5C 838.937,52.1834 841.77,52.1834 844.5,53.5 Z"/></g>
<g><path style="opacity:0.58" fill="#f7f7f7" d="M 495.5,87.5 C 508.532,85.3677 515.532,90.8677 516.5,104C 516.272,111.739 512.605,117.239 505.5,120.5C 504.5,152.493 504.167,184.493 504.5,216.5C 501.5,216.5 498.5,216.5 495.5,216.5C 495.667,184.165 495.5,151.832 495,119.5C 490.553,116.616 487.553,112.616 486,107.5C 485.586,107.957 485.086,108.291 484.5,108.5C 482.291,107.894 480.124,107.227 478,106.5C 473.797,111.738 469.964,117.238 466.5,123C 461.113,123.784 455.78,123.618 450.5,122.5C 449.516,119.572 449.183,116.572 449.5,113.5C 453.507,114.004 457.507,114.17 461.5,114C 464.958,108.918 468.291,103.752 471.5,98.5C 476.432,97.3873 481.265,97.7206 486,99.5C 487.892,94.4471 491.058,90.4471 495.5,87.5 Z M 498.5,96.5 C 497.496,97.6828 496.662,99.0161 496,100.5C 494.077,108.229 496.91,111.729 504.5,111C 507.265,108.005 508.098,104.505 507,100.5C 505.323,96.9489 502.49,95.6155 498.5,96.5 Z"/></g>
<g><path style="opacity:0.611" fill="#f5f5f5" d="M 809.5,188.5 C 806.946,189.388 804.279,189.721 801.5,189.5C 796.964,156.12 780.964,129.62 753.5,110C 726.992,94.7291 699.326,92.3957 670.5,103C 642.015,114.817 622.849,135.317 613,164.5C 610.425,172.936 607.925,181.27 605.5,189.5C 604.18,189.295 602.514,188.795 600.5,188C 599.663,186.989 599.33,185.822 599.5,184.5C 605.852,138.984 630.519,108.151 673.5,92C 719.889,79.2102 757.722,91.7102 787,129.5C 801.329,146.781 808.829,166.448 809.5,188.5 Z"/></g>
<g><path style="opacity:0.088" fill="#c6c6c6" d="M 540.5,92.5 C 540.197,124.669 539.53,156.669 538.5,188.5C 538.612,159.939 538.279,131.773 537.5,104C 538.293,100.589 538.793,97.0894 539,93.5C 539.383,92.944 539.883,92.6107 540.5,92.5 Z"/></g>
<g><path style="opacity:0.615" fill="#f4f4f4" d="M 561.5,104.5 C 571.864,103.697 577.53,108.53 578.5,119C 576.656,130.915 569.99,135.248 558.5,132C 551.276,126.051 549.776,118.884 554,110.5C 556.109,107.878 558.609,105.878 561.5,104.5 Z M 563.5,113.5 C 561.863,114.974 560.863,116.808 560.5,119C 561.399,123.81 563.732,124.977 567.5,122.5C 570.296,117.754 568.963,114.754 563.5,113.5 Z"/></g>
<g><path style="opacity:0.594" fill="#f6f6f6" d="M 960.5,152.5 C 960.833,153.833 961.167,155.167 961.5,156.5C 959.497,158.982 956.831,159.982 953.5,159.5C 944.311,146.515 934.144,134.181 923,122.5C 920.778,119.49 921.278,116.99 924.5,115C 926.167,114.333 927.833,114.333 929.5,115C 940.045,127.373 950.379,139.873 960.5,152.5 Z"/></g>
<g><path style="opacity:0.506" fill="#f5f5f5" d="M 432.5,119.5 C 441.161,119.438 444.661,123.771 443,132.5C 439.972,137.575 435.806,138.741 430.5,136C 426.044,129.812 426.711,124.312 432.5,119.5 Z"/></g>
<g><path style="opacity:0.705" fill="#f6f6f6" d="M 560.5,141.5 C 563.5,141.5 566.5,141.5 569.5,141.5C 569.5,163.833 569.5,186.167 569.5,208.5C 566.5,208.5 563.5,208.5 560.5,208.5C 560.5,186.167 560.5,163.833 560.5,141.5 Z"/></g>
<g><path style="opacity:0.576" fill="#f6f6f6" d="M 472.5,141.5 C 477.25,142.893 478.917,145.893 477.5,150.5C 473.42,153.204 469.753,156.371 466.5,160C 460.833,160.333 455.167,160.667 449.5,161C 426.569,189.395 403.069,217.229 379,244.5C 373.609,243.251 372.275,240.251 375,235.5C 398.876,207.96 422.376,180.127 445.5,152C 456.896,153.957 465.896,150.457 472.5,141.5 Z"/></g>
<g><path style="opacity:0.734" fill="#f7f7f7" d="M 698.5,224.5 C 697.139,228.617 696.139,232.95 695.5,237.5C 693.089,236.639 691.089,235.306 689.5,233.5C 688.869,213.855 688.202,194.188 687.5,174.5C 670.668,165.822 666.834,153.156 676,136.5C 685.615,125.863 696.115,124.863 707.5,133.5C 714.983,142.468 716.483,152.468 712,163.5C 708.772,168.701 704.272,172.368 698.5,174.5C 697.744,191.29 697.744,207.956 698.5,224.5 Z"/></g>
<g><path style="opacity:0.567" fill="#f6f6f6" d="M 915.5,151.5 C 932.066,152.251 938.899,160.918 936,177.5C 935.017,179.448 933.85,181.282 932.5,183C 945,198.167 957.5,213.333 970,228.5C 970.492,229.549 970.326,230.549 969.5,231.5C 968,232.5 966.5,233.5 965,234.5C 963.605,234.22 962.438,233.553 961.5,232.5C 950.066,217.563 938.066,203.063 925.5,189C 915.131,191.322 907.965,187.489 904,177.5C 901.074,165.695 904.908,157.028 915.5,151.5 Z M 917.5,160.5 C 912.754,164.342 911.254,169.342 913,175.5C 914.145,178.477 916.312,180.144 919.5,180.5C 927.112,178.364 929.612,173.364 927,165.5C 924.855,161.848 921.689,160.182 917.5,160.5 Z"/></g>
<g><path style="opacity:0.008" fill="#525252" d="M 960.5,152.5 C 962.519,153.538 962.853,154.872 961.5,156.5C 961.167,155.167 960.833,153.833 960.5,152.5 Z"/></g>
<g><path style="opacity:0.531" fill="#f1f1f1" d="M 837.5,154.5 C 845.738,154.966 849.238,159.299 848,167.5C 845.201,172.287 841.034,173.787 835.5,172C 829.755,165.389 830.421,159.555 837.5,154.5 Z"/></g>
<g><path style="opacity:0.56" fill="#f3f3f3" d="M 405.5,154.5 C 409.584,153.875 412.584,155.375 414.5,159C 394.79,182.241 374.956,205.408 355,228.5C 350.718,227.899 348.718,225.566 349,221.5C 367,200.833 385,180.167 403,159.5C 404.438,158.1 405.271,156.433 405.5,154.5 Z"/></g>
<g><path style="opacity:0.569" fill="#f7f7f7" d="M 965.5,175.5 C 975.27,174.437 979.437,178.77 978,188.5C 973.126,196.074 967.792,196.408 962,189.5C 960.496,184.01 961.663,179.343 965.5,175.5 Z"/></g>
<g><path style="opacity:0.574" fill="#f6f6f6" d="M 465.5,184.5 C 476.676,184.676 482.676,190.342 483.5,201.5C 481.806,215.84 474.139,220.84 460.5,216.5C 458.087,214.591 456.253,212.257 455,209.5C 449.898,215.358 444.565,221.024 439,226.5C 438.891,231.614 438.224,236.614 437,241.5C 433.5,245.667 430,249.833 426.5,254C 421.625,254.458 419.458,252.292 420,247.5C 423,243.833 426,240.167 429,236.5C 429.109,231.386 429.776,226.386 431,221.5C 438,213.833 445.333,206.5 453,199.5C 454.396,191.963 458.563,186.963 465.5,184.5 Z M 467.5,193.5 C 462.301,196.906 461.135,201.573 464,207.5C 470.086,210.639 473.586,208.639 474.5,201.5C 474.266,196.936 471.933,194.269 467.5,193.5 Z"/></g>
<g><path style="opacity:0.02" fill="#777777" d="M 809.5,188.5 C 809.737,189.791 809.404,190.791 808.5,191.5C 806.833,191.5 805.167,191.5 803.5,191.5C 802.167,191.5 801.5,190.833 801.5,189.5C 804.279,189.721 806.946,189.388 809.5,188.5 Z"/></g>
<g><path style="opacity:0.012" fill="#808080" d="M 599.5,184.5 C 599.33,185.822 599.663,186.989 600.5,188C 602.514,188.795 604.18,189.295 605.5,189.5C 605.672,190.492 605.338,191.158 604.5,191.5C 603.167,191.5 601.833,191.5 600.5,191.5C 598.278,191.441 597.278,190.275 597.5,188C 597.387,186.301 598.053,185.134 599.5,184.5 Z"/></g>
<g><path style="opacity:0.004" fill="#000000" d="M 600.5,191.5 C 601.833,191.5 603.167,191.5 604.5,191.5C 604.5,192.167 604.5,192.833 604.5,193.5C 602.833,193.5 601.167,193.5 599.5,193.5C 599.833,192.833 600.167,192.167 600.5,191.5 Z"/></g>
<g><path style="opacity:0.004" fill="#000000" d="M 803.5,191.5 C 805.167,191.5 806.833,191.5 808.5,191.5C 808.5,192.167 808.5,192.833 808.5,193.5C 806.833,193.5 805.167,193.5 803.5,193.5C 803.5,192.833 803.5,192.167 803.5,191.5 Z"/></g>
<g><path style="opacity:0.578" fill="#f5f5f5" d="M 988.5,195.5 C 998.422,194.585 1004.09,199.085 1005.5,209C 1004.21,221.958 997.544,226.291 985.5,222C 978.344,215.091 977.677,207.591 983.5,199.5C 985.419,198.388 987.086,197.054 988.5,195.5 Z M 990.5,204.5 C 988.782,206.926 988.282,209.593 989,212.5C 990.724,215.73 992.724,216.064 995,213.5C 995.667,211.167 995.667,208.833 995,206.5C 993.89,204.963 992.39,204.297 990.5,204.5 Z"/></g>
<g><path style="opacity:0.752" fill="#f8f8f8" d="M 722.5,239.5 C 721.178,239.67 720.011,239.337 719,238.5C 718.729,242.13 717.062,243.13 714,241.5C 713.51,240.207 713.343,238.873 713.5,237.5C 715.695,233.795 717.695,229.962 719.5,226C 712.91,216.847 711.744,207.014 716,196.5C 724.853,184.434 735.686,182.268 748.5,190C 757.702,200.277 758.869,211.444 752,223.5C 745.381,230.984 737.381,233.318 728,230.5C 725.653,233.194 723.82,236.194 722.5,239.5 Z"/></g>
<g><path style="opacity:0.726" fill="#f9f9f9" d="M 649.5,184.5 C 668.061,185.902 676.228,195.902 674,214.5C 672.264,218.972 669.764,222.972 666.5,226.5C 671.828,231.492 675.494,237.492 677.5,244.5C 676.145,245.675 676.312,246.675 678,247.5C 678.667,262.167 678.667,276.833 678,291.5C 675.281,292.444 672.448,292.777 669.5,292.5C 669.667,276.83 669.5,261.163 669,245.5C 665.916,240.408 662.416,235.575 658.5,231C 638.366,231.656 629.533,221.823 632,201.5C 634.462,192.203 640.295,186.536 649.5,184.5 Z"/></g>
<g><path style="opacity:0.611" fill="#ebebeb" d="M 860.5,202.5 C 863.448,202.223 866.281,202.556 869,203.5C 869.5,222.497 869.667,241.497 869.5,260.5C 866.5,260.5 863.5,260.5 860.5,260.5C 860.242,241.086 860.242,221.753 860.5,202.5 Z"/></g>
<g><path style="opacity:0.617" fill="#f6f6f6" d="M 599.5,193.5 C 601.167,193.5 602.833,193.5 604.5,193.5C 605.725,194.152 606.392,195.319 606.5,197C 605.328,217.459 608.161,237.292 615,256.5C 617.87,262.386 621.204,268.053 625,273.5C 636.667,286.167 648.333,298.833 660,311.5C 666.753,321.086 670.753,331.753 672,343.5C 672.684,354.519 672.518,365.519 671.5,376.5C 668.5,376.5 665.5,376.5 662.5,376.5C 664.702,360.226 663.535,344.226 659,328.5C 656.458,322.635 653.125,317.301 649,312.5C 639,301.833 629,291.167 619,280.5C 607.451,264.338 600.451,246.338 598,226.5C 596.698,216.158 596.531,205.825 597.5,195.5C 597.747,194.287 598.414,193.62 599.5,193.5 Z"/></g>
<g><path style="opacity:0.597" fill="#f5f5f5" d="M 803.5,193.5 C 805.167,193.5 806.833,193.5 808.5,193.5C 810.285,201.496 811.785,209.83 813,218.5C 817.224,226.057 822.224,233.057 828,239.5C 829.068,244.768 828.401,249.768 826,254.5C 820.554,260.215 814.554,265.215 808,269.5C 811.647,300.191 799.814,308.358 772.5,294C 769.794,292.628 767.794,290.628 766.5,288C 766.886,285.278 768.386,283.445 771,282.5C 774.93,284.547 778.764,286.714 782.5,289C 787.284,291.032 792.284,291.866 797.5,291.5C 798.001,282.458 798.835,273.458 800,264.5C 804.384,260.289 809.217,256.622 814.5,253.5C 818.658,250.865 820.158,247.198 819,242.5C 812.827,235.989 807.827,228.656 804,220.5C 802.776,214.046 801.942,207.546 801.5,201C 801.525,198.071 802.191,195.571 803.5,193.5 Z"/></g>
<g><path style="opacity:0.526" fill="#f2f2f2" d="M 540.5,92.5 C 539.883,92.6107 539.383,92.944 539,93.5C 538.793,97.0894 538.293,100.589 537.5,104C 538.279,131.773 538.612,159.939 538.5,188.5C 538.666,196.507 538.5,204.507 538,212.5C 527.98,223.686 518.147,235.019 508.5,246.5C 507.624,247.251 506.624,247.751 505.5,248C 492.833,248.333 480.167,248.667 467.5,249C 458,258.167 448.5,267.333 439,276.5C 439.22,283.155 439.22,289.822 439,296.5C 432.286,304.759 425.452,312.926 418.5,321C 404.176,320.896 389.843,320.729 375.5,320.5C 375.5,317.5 375.5,314.5 375.5,311.5C 388.526,311.48 401.526,311.647 414.5,312C 419.644,305.355 424.978,298.855 430.5,292.5C 429.203,285.527 429.203,278.527 430.5,271.5C 442.357,260.474 454.357,249.641 466.5,239C 478.409,238.179 490.243,238.346 502,239.5C 511.019,229.648 519.853,219.648 528.5,209.5C 530.031,163.179 531.198,116.845 532,70.5C 537.211,64.9583 542.044,59.1249 546.5,53C 550.178,52.1723 552.845,53.5056 554.5,57C 550.045,62.7983 545.545,68.6317 541,74.5C 540.501,80.4908 540.334,86.4908 540.5,92.5 Z"/></g>
<g><path style="opacity:0.585" fill="#f5f5f5" d="M 1016.5,225.5 C 1025.46,223.561 1031.3,226.894 1034,235.5C 1034.41,239.213 1034.41,242.879 1034,246.5C 1055.89,272.72 1077.39,299.22 1098.5,326C 1095.46,331.747 1091.96,331.913 1088,326.5C 1067.83,302 1047.67,277.5 1027.5,253C 1015.08,254.584 1008.91,249.084 1009,236.5C 1010.03,231.767 1012.53,228.101 1016.5,225.5 Z M 1019.5,234.5 C 1018.92,236.076 1018.59,237.742 1018.5,239.5C 1018.82,244.327 1020.82,245.327 1024.5,242.5C 1026.86,237.221 1025.19,234.554 1019.5,234.5 Z"/></g>
<g><path style="opacity:0.047" fill="#a8a8a8" d="M 698.5,224.5 C 698.919,230.986 698.252,237.319 696.5,243.5C 695.508,243.328 694.842,243.662 694.5,244.5C 693.167,244.5 691.833,244.5 690.5,244.5C 689.577,240.936 689.244,237.269 689.5,233.5C 691.089,235.306 693.089,236.639 695.5,237.5C 696.139,232.95 697.139,228.617 698.5,224.5 Z"/></g>
<g><path style="opacity:0.242" fill="#eeeeee" d="M 1082.5,240.5 C 1102.99,281.157 1115.99,324.324 1121.5,370C 1121.44,371.436 1121.11,372.769 1120.5,374C 1117.57,374.777 1114.74,374.61 1112,373.5C 1107.98,345.956 1101.81,318.956 1093.5,292.5C 1093.71,290.821 1093.05,289.821 1091.5,289.5C 1086.45,273.671 1080.45,258.338 1073.5,243.5C 1075.14,243.286 1076.64,243.62 1078,244.5C 1078.67,243.167 1079.33,241.833 1080,240.5C 1080.98,241.774 1081.81,241.774 1082.5,240.5 Z"/></g>
<g><path style="opacity:0.631" fill="#f5f5f5" d="M 514.5,242.5 C 531.547,242.181 548.547,242.514 565.5,243.5C 588.76,273.016 612.26,302.349 636,331.5C 637.05,335.681 635.383,338.014 631,338.5C 607.167,310.039 583.667,281.206 560.5,252C 545.167,251.667 529.833,251.333 514.5,251C 513.214,248.168 513.214,245.335 514.5,242.5 Z"/></g>
<g><path style="opacity:0.004" fill="#151515" d="M 694.5,244.5 C 694.842,243.662 695.508,243.328 696.5,243.5C 696.833,244.167 697.167,244.833 697.5,245.5C 696.391,245.443 695.391,245.11 694.5,244.5 Z"/></g>
<g><path style="opacity:0.527" fill="#f7f7f7" d="M 973.5,245.5 C 982.688,247.2 985.688,252.533 982.5,261.5C 977.897,267.355 973.064,267.688 968,262.5C 963.514,254.811 965.348,249.144 973.5,245.5 Z"/></g>
<g><path style="opacity:0.196" fill="#dbdbdb" d="M 713.5,237.5 C 713.343,238.873 713.51,240.207 714,241.5C 717.062,243.13 718.729,242.13 719,238.5C 720.011,239.337 721.178,239.67 722.5,239.5C 719.436,244.106 717.436,249.106 716.5,254.5C 716.808,252.076 716.474,249.743 715.5,247.5C 713.698,248.986 711.698,249.986 709.5,250.5C 710.703,257.695 710.703,265.028 709.5,272.5C 705.794,260.274 707.127,248.608 713.5,237.5 Z"/></g>
<g><path style="opacity:0.609" fill="#f8f8f8" d="M 716.5,254.5 C 718.053,266.106 718.719,277.772 718.5,289.5C 715.5,289.5 712.5,289.5 709.5,289.5C 709.5,283.833 709.5,278.167 709.5,272.5C 710.703,265.028 710.703,257.695 709.5,250.5C 711.698,249.986 713.698,248.986 715.5,247.5C 716.474,249.743 716.808,252.076 716.5,254.5 Z"/></g>
<g><path style="opacity:0.617" fill="#f2f2f2" d="M 837.5,255.5 C 841.273,254.822 844.106,256.156 846,259.5C 857.167,272.667 868.333,285.833 879.5,299C 889.908,299.802 900.241,300.968 910.5,302.5C 921.191,316.024 931.691,329.691 942,343.5C 942.5,351.159 942.666,358.826 942.5,366.5C 939.428,366.817 936.428,366.484 933.5,365.5C 932.419,358.831 932.252,352.165 933,345.5C 924.31,334.977 915.81,324.311 907.5,313.5C 906.284,311.76 904.618,310.76 902.5,310.5C 893.444,309.998 884.444,309.165 875.5,308C 861.448,292.538 848.114,276.538 835.5,260C 836.074,258.393 836.74,256.893 837.5,255.5 Z"/></g>
<g><path style="opacity:0.596" fill="#f9f9f9" d="M 690.5,244.5 C 691.833,244.5 693.167,244.5 694.5,244.5C 695.391,245.11 696.391,245.443 697.5,245.5C 698.499,288.997 698.832,332.663 698.5,376.5C 695.5,376.5 692.5,376.5 689.5,376.5C 689.168,332.33 689.501,288.33 690.5,244.5 Z"/></g>
<g><path style="opacity:0.636" fill="#f7f7f7" d="M 999.5,263.5 C 1001.29,263.215 1002.95,263.548 1004.5,264.5C 1021.93,286.35 1039.59,308.017 1057.5,329.5C 1059.71,327.898 1062.04,326.564 1064.5,325.5C 1066.03,325.529 1067.2,326.196 1068,327.5C 1076.26,339.012 1084.76,350.346 1093.5,361.5C 1094.45,363.045 1094.79,364.712 1094.5,366.5C 1091.48,366.665 1088.48,366.498 1085.5,366C 1078.74,356.488 1071.74,347.154 1064.5,338C 1062.06,337.885 1060.06,338.885 1058.5,341C 1056.74,341.798 1055.07,341.631 1053.5,340.5C 1034.9,317.062 1015.73,294.062 996,271.5C 995.333,270.167 995.333,268.833 996,267.5C 997.627,266.468 998.793,265.134 999.5,263.5 Z"/></g>
<g><path style="opacity:0.218" fill="#ededed" d="M 304.5,258.5 C 305.097,258.735 305.43,259.235 305.5,260C 304.549,262.158 304.049,264.325 304,266.5C 306.089,266.255 308.089,266.255 310,266.5C 311.087,264.068 311.587,264.402 311.5,267.5C 298.242,301.784 288.909,337.118 283.5,373.5C 280.697,374.776 278.03,374.776 275.5,373.5C 275.5,370.833 275.5,368.167 275.5,365.5C 279.748,328.21 289.415,292.543 304.5,258.5 Z"/></g>
<g><path style="opacity:0.554" fill="#f3f3f3" d="M 335.5,265.5 C 339.925,264.757 342.592,266.59 343.5,271C 338.712,276.79 333.546,282.29 328,287.5C 327.39,292.851 327.557,298.184 328.5,303.5C 328.406,305.923 327.906,308.256 327,310.5C 320.333,318.5 313.667,326.5 307,334.5C 307.312,345.14 307.478,355.807 307.5,366.5C 304.167,366.5 300.833,366.5 297.5,366.5C 297.168,354.149 297.501,341.815 298.5,329.5C 304.481,322.352 310.647,315.352 317,308.5C 318.267,300.938 318.934,293.271 319,285.5C 324.358,278.649 329.858,271.983 335.5,265.5 Z"/></g>
<g><path style="opacity:0.58" fill="#f5f5f5" d="M 469.5,264.5 C 484.081,263.913 493.581,270.579 498,284.5C 500.347,299.647 494.513,310.147 480.5,316C 461.599,318.215 450.932,309.882 448.5,291C 449.445,277.235 456.445,268.402 469.5,264.5 Z M 472.5,273.5 C 484.992,275.453 490.492,282.786 489,295.5C 484.444,307.686 476.277,310.852 464.5,305C 457.909,297.748 456.742,289.581 461,280.5C 464.274,276.959 468.107,274.626 472.5,273.5 Z"/></g>
<g><path style="opacity:0.615" fill="#f7f7f7" d="M 507.5,275.5 C 509.288,275.215 510.955,275.548 512.5,276.5C 522.063,287.555 531.396,298.722 540.5,310C 539.738,313.88 537.404,315.547 533.5,315C 524,304.167 514.5,293.333 505,282.5C 503.916,279.341 504.75,277.008 507.5,275.5 Z"/></g>
<g><path style="opacity:0.58" fill="#f5f5f5" d="M 909.5,273.5 C 911.288,273.215 912.955,273.548 914.5,274.5C 930.809,295.976 947.309,317.309 964,338.5C 964.781,339.944 964.614,341.277 963.5,342.5C 962.354,343.145 961.354,343.978 960.5,345C 959.101,345.595 957.768,345.428 956.5,344.5C 940.245,322.996 923.745,301.663 907,280.5C 906.506,278.866 906.34,277.199 906.5,275.5C 908.179,275.715 909.179,275.048 909.5,273.5 Z"/></g>
<g><path style="opacity:0.528" fill="#f7f7f7" d="M 973.5,275.5 C 984.215,274.716 989.048,279.716 988,290.5C 985.408,296.544 980.908,299.044 974.5,298C 967.93,294.345 965.763,288.845 968,281.5C 969.36,278.977 971.193,276.977 973.5,275.5 Z M 976.5,283.5 C 977.496,283.414 978.329,283.748 979,284.5C 979.82,286.728 979.487,288.728 978,290.5C 975.318,288.623 974.818,286.29 976.5,283.5 Z"/></g>
<g><path style="opacity:0.031" fill="#6a6a6a" d="M 1091.5,289.5 C 1093.05,289.821 1093.71,290.821 1093.5,292.5C 1092.6,291.71 1091.93,290.71 1091.5,289.5 Z"/></g>
<g><path style="opacity:0.595" fill="#f4f4f4" d="M 563.5,293.5 C 576.351,293.156 580.018,298.656 574.5,310C 564.351,314.679 558.851,311.513 558,300.5C 558.967,297.379 560.8,295.046 563.5,293.5 Z"/></g>
<g><path style="opacity:0.535" fill="#f5f5f5" d="M 838.5,297.5 C 847.827,296.993 851.66,301.326 850,310.5C 843.675,317.634 838.342,316.968 834,308.5C 833.457,303.954 834.957,300.287 838.5,297.5 Z"/></g>
<g><path style="opacity:0.628" fill="#f5f5f5" d="M 785.5,314.5 C 788.206,314.575 790.873,314.908 793.5,315.5C 792.096,330.822 784.429,341.656 770.5,348C 766.313,348.071 762.313,348.738 758.5,350C 758.557,358.623 758.557,367.457 758.5,376.5C 755.5,376.5 752.5,376.5 749.5,376.5C 749.194,367.446 749.528,358.446 750.5,349.5C 743.544,347.029 736.544,344.529 729.5,342C 721.543,337.204 714.21,331.704 707.5,325.5C 708.806,324.088 709.64,322.421 710,320.5C 712.21,319.251 714.376,319.418 716.5,321C 725.806,330.655 737.139,336.655 750.5,339C 756.833,339.667 763.167,339.667 769.5,339C 778.038,333.025 783.372,324.858 785.5,314.5 Z"/></g>
<g><path style="opacity:0.568" fill="#f6f6f6" d="M 832.5,330.5 C 843.136,332.451 853.636,335.117 864,338.5C 869.894,335.552 875.894,332.885 882,330.5C 890.235,332.765 898.401,335.099 906.5,337.5C 906.804,341.425 905.637,344.758 903,347.5C 896.028,345.549 889.194,343.216 882.5,340.5C 876.545,343.9 870.378,346.567 864,348.5C 854.431,346.644 845.098,343.977 836,340.5C 828.8,344.52 821.633,348.687 814.5,353C 812.866,353.494 811.199,353.66 809.5,353.5C 807.914,350.729 807.414,347.729 808,344.5C 816.395,340.104 824.561,335.437 832.5,330.5 Z"/></g>
<g><path style="opacity:0.568" fill="#f6f6f6" d="M 553.5,330.5 C 555.199,330.34 556.866,330.506 558.5,331C 563.246,333.973 568.246,336.473 573.5,338.5C 583.616,334.887 593.949,332.387 604.5,331C 612.41,335.523 620.41,339.857 628.5,344C 630.84,347.085 630.507,350.085 627.5,353C 626.167,353.667 624.833,353.667 623.5,353C 616.213,348.739 608.879,344.572 601.5,340.5C 591.167,344.786 580.5,347.286 569.5,348C 564.588,345.628 559.755,343.128 555,340.5C 548.425,343.025 541.759,345.359 535,347.5C 533.739,347.241 532.739,346.574 532,345.5C 531.503,342.854 531.336,340.187 531.5,337.5C 539.088,335.691 546.422,333.358 553.5,330.5 Z"/></g>
<g><path style="opacity:0.554" fill="#f7f7f7" d="M 979.5,334.5 C 981.144,334.286 982.644,334.62 984,335.5C 990.621,344.456 997.621,353.123 1005,361.5C 1006.01,363.025 1006.51,364.692 1006.5,366.5C 1002.77,366.823 999.107,366.489 995.5,365.5C 990.187,359.019 984.687,352.686 979,346.5C 977.367,344.547 976.201,342.38 975.5,340C 976.298,337.713 977.631,335.88 979.5,334.5 Z"/></g>
<g><path style="opacity:0.544" fill="#f5f5f5" d="M 343.5,334.5 C 349.198,334.679 351.031,337.346 349,342.5C 342.644,350.022 336.477,357.689 330.5,365.5C 327.232,366.487 323.898,366.82 320.5,366.5C 320.215,364.712 320.548,363.045 321.5,361.5C 329.557,353.029 336.891,344.029 343.5,334.5 Z"/></g>
<g><path style="opacity:0.464" fill="#f3f3f3" d="M 1015.5,338.5 C 1018.65,337.959 1021.15,338.959 1023,341.5C 1028.29,348.46 1033.96,355.127 1040,361.5C 1041.01,363.025 1041.51,364.692 1041.5,366.5C 1037.82,366.665 1034.15,366.499 1030.5,366C 1024.99,359.327 1019.32,352.827 1013.5,346.5C 1012.37,344.926 1012.2,343.259 1013,341.5C 1014.42,340.922 1015.25,339.922 1015.5,338.5 Z"/></g>
<g><path style="opacity:0.444" fill="#f5f5f5" d="M 379.5,338.5 C 384.722,338.945 386.389,341.612 384.5,346.5C 378.939,352.608 373.606,358.941 368.5,365.5C 365.572,366.484 362.572,366.817 359.5,366.5C 359.215,364.712 359.548,363.045 360.5,361.5C 366.886,353.789 373.22,346.123 379.5,338.5 Z"/></g>
<g><path style="opacity:0.641" fill="#f4f4f4" d="M 436.5,323.5 C 437.978,323.238 439.311,323.571 440.5,324.5C 448.35,332.516 456.017,340.682 463.5,349C 477.143,350.229 490.81,351.062 504.5,351.5C 504.5,354.5 504.5,357.5 504.5,360.5C 489.459,360.316 474.459,359.482 459.5,358C 451.364,348.863 442.864,340.03 434,331.5C 433.018,328.225 433.851,325.559 436.5,323.5 Z"/></g>
<g><path style="opacity:0.016" fill="#666666" d="M 275.5,365.5 C 275.5,368.167 275.5,370.833 275.5,373.5C 274.305,373.134 273.639,372.301 273.5,371C 273.954,368.97 274.62,367.137 275.5,365.5 Z"/></g>
<g><path style="opacity:0.411" fill="#f2f2f2" d="M 205.5,379.5 C 236.507,379.167 267.507,379.5 298.5,380.5C 299.946,382.618 300.613,384.951 300.5,387.5C 270.144,387.213 239.81,387.88 209.5,389.5C 202.046,398.91 194.712,408.41 187.5,418C 127.181,420.264 66.8481,421.597 6.5,422C 4.84525,419.753 4.51191,417.42 5.5,415C 64.1653,413.282 122.832,411.615 181.5,410C 189.684,399.982 197.684,389.816 205.5,379.5 Z"/></g>
<g><path style="opacity:0.395" fill="#f2f2f2" d="M 1095.5,377.5 C 1124.47,378.507 1153.47,379.34 1182.5,380C 1190.66,389.664 1198.66,399.497 1206.5,409.5C 1265.15,411.615 1323.82,413.448 1382.5,415C 1384.48,417.043 1385.48,419.543 1385.5,422.5C 1341.83,421.75 1298.17,420.917 1254.5,420C 1237.47,419.66 1220.47,418.827 1203.5,417.5C 1196.55,407.88 1189.21,398.546 1181.5,389.5C 1179.58,388.692 1177.58,388.192 1175.5,388C 1149.51,387.131 1123.51,386.464 1097.5,386C 1095.82,383.435 1095.15,380.602 1095.5,377.5 Z"/></g>
<g><path style="opacity:0.942" fill="#fdfdfd" d="M 500.5,397.5 C 525.493,395.292 549.826,398.125 573.5,406C 581.233,409.033 588.566,412.867 595.5,417.5C 596.409,433.854 596.909,450.187 597,466.5C 587.988,460.593 578.488,455.427 568.5,451C 541.099,442.444 513.765,442.444 486.5,451C 466.27,460.938 454.437,477.104 451,499.5C 448.912,515.416 450.912,530.75 457,545.5C 468.053,564.528 484.553,575.695 506.5,579C 531.823,582.367 556.156,579.034 579.5,569C 585.181,565.827 590.514,562.161 595.5,558C 597.259,557.202 598.926,557.369 600.5,558.5C 599.682,574.122 599.182,589.789 599,605.5C 581.019,617.218 561.186,624.051 539.5,626C 503.533,630.737 470.533,623.404 440.5,604C 415.446,584.202 401.28,558.369 398,526.5C 393.207,485.745 405.707,451.578 435.5,424C 454.661,409.088 476.328,400.255 500.5,397.5 Z"/></g>
<g><path style="opacity:0.938" fill="#fdfdfd" d="M 871.5,397.5 C 900.23,395.125 927.896,399.125 954.5,409.5C 954.5,424.167 954.5,438.833 954.5,453.5C 944.026,449.731 933.359,446.231 922.5,443C 905.591,439.066 888.924,439.732 872.5,445C 861.606,451.575 858.939,460.742 864.5,472.5C 866.683,474.85 869.016,477.017 871.5,479C 885.684,486.227 900.351,492.561 915.5,498C 926.55,502.705 936.883,508.705 946.5,516C 963.994,532.039 970.494,551.872 966,575.5C 959.882,600.285 944.382,615.785 919.5,622C 885.175,628.992 851.175,627.659 817.5,618C 813.5,616.333 809.5,614.667 805.5,613C 804.826,598.197 804.159,583.363 803.5,568.5C 804,568.167 804.5,567.833 805,567.5C 834.127,581.613 864.627,586.113 896.5,581C 909.145,575.745 913.311,566.579 909,553.5C 905.454,548.287 900.954,544.12 895.5,541C 874.049,532.94 853.382,523.274 833.5,512C 808.049,493.238 800.216,468.738 810,438.5C 817.882,422.116 830.382,410.616 847.5,404C 855.479,401.277 863.479,399.11 871.5,397.5 Z"/></g>
<g><path style="opacity:0.933" fill="#fdfdfd" d="M 719.5,401.5 C 736.833,401.5 754.167,401.5 771.5,401.5C 771.5,475.167 771.5,548.833 771.5,622.5C 754.167,622.5 736.833,622.5 719.5,622.5C 719.5,548.833 719.5,475.167 719.5,401.5 Z"/></g>
<g><path style="opacity:0.933" fill="#fdfdfd" d="M 633.5,401.5 C 651.167,401.5 668.833,401.5 686.5,401.5C 686.667,474.834 686.5,548.167 686,621.5C 677.409,622.16 668.742,622.493 660,622.5C 651.258,622.493 642.591,622.16 634,621.5C 633.5,548.167 633.333,474.834 633.5,401.5 Z"/></g>
<g><path style="opacity:0.501" fill="#fafafa" d="M 124.5,427.5 C 169.167,427.5 213.833,427.5 258.5,427.5C 258.5,430.5 258.5,433.5 258.5,436.5C 213.5,436.5 168.5,436.5 123.5,436.5C 123.264,433.391 123.597,430.391 124.5,427.5 Z"/></g>
<g><path style="opacity:0.509" fill="#fafafa" d="M 1131.5,427.5 C 1176.17,427.333 1220.83,427.5 1265.5,428C 1266.44,430.719 1266.78,433.552 1266.5,436.5C 1221.5,436.5 1176.5,436.5 1131.5,436.5C 1131.5,433.5 1131.5,430.5 1131.5,427.5 Z"/></g>
<g><path style="opacity:0.62" fill="#f7f7f7" d="M -0.5,464.5 C -0.5,461.833 -0.5,459.167 -0.5,456.5C 71.0899,454.252 142.757,452.585 214.5,451.5C 214.5,454.5 214.5,457.5 214.5,460.5C 142.838,462.139 71.1718,463.473 -0.5,464.5 Z"/></g>
<g><path style="opacity:0.624" fill="#f7f7f7" d="M 1389.5,455.5 C 1389.5,458.5 1389.5,461.5 1389.5,464.5C 1318.16,463.462 1246.83,462.128 1175.5,460.5C 1175.5,457.5 1175.5,454.5 1175.5,451.5C 1246.83,452.907 1318.17,454.241 1389.5,455.5 Z"/></g>
<g><path style="opacity:0.551" fill="#f4f4f4" d="M 251.5,483.5 C 227.67,482.668 203.67,482.168 179.5,482C 180.167,481.333 180.833,480.667 181.5,480C 179.883,478.908 178.883,477.408 178.5,475.5C 205.159,474.673 231.825,474.007 258.5,473.5C 258.817,476.572 258.484,479.572 257.5,482.5C 255.591,483.348 253.591,483.682 251.5,483.5 Z"/></g>
<g><path style="opacity:0.548" fill="#efefef" d="M 1131.5,473.5 C 1158.84,474.033 1186.17,474.7 1213.5,475.5C 1213.98,478.685 1213.31,481.519 1211.5,484C 1185.5,483.963 1159.5,483.63 1133.5,483C 1131.66,480.196 1130.99,477.03 1131.5,473.5 Z"/></g>
<g><path style="opacity:0.061" fill="#cfcfcf" d="M 178.5,475.5 C 178.883,477.408 179.883,478.908 181.5,480C 180.833,480.667 180.167,481.333 179.5,482C 203.67,482.168 227.67,482.668 251.5,483.5C 227.16,483.681 202.827,483.847 178.5,484C 175.928,480.974 175.928,478.141 178.5,475.5 Z"/></g>
<g><path style="opacity:0.536" fill="#f6f6f6" d="M 225.5,497.5 C 238.167,497.5 250.833,497.5 263.5,497.5C 263.5,500.5 263.5,503.5 263.5,506.5C 185.512,508.966 107.512,510.966 29.5,512.5C 29.2229,509.552 29.5562,506.719 30.5,504C 95.6787,502.324 160.679,500.157 225.5,497.5 Z"/></g>
<g><path style="opacity:0.537" fill="#f5f5f5" d="M 1126.5,497.5 C 1204.5,499.379 1282.5,501.379 1360.5,503.5C 1360.5,506.5 1360.5,509.5 1360.5,512.5C 1282.49,510.912 1204.49,508.912 1126.5,506.5C 1126.5,503.5 1126.5,500.5 1126.5,497.5 Z"/></g>
<g><path style="opacity:0.548" fill="#f6f6f6" d="M 245.5,537.5 C 223.673,536.503 201.673,536.169 179.5,536.5C 179.042,533.606 179.709,531.106 181.5,529C 205.833,528.394 230.166,527.894 254.5,527.5C 254.5,530.5 254.5,533.5 254.5,536.5C 251.518,536.963 248.518,537.296 245.5,537.5 Z"/></g>
<g><path style="opacity:0.546" fill="#f2f2f2" d="M 1135.5,527.5 C 1160.17,527.904 1184.83,528.404 1209.5,529C 1212.18,532.627 1211.68,535.794 1208,538.5C 1184.1,537.829 1159.93,537.162 1135.5,536.5C 1135.5,533.5 1135.5,530.5 1135.5,527.5 Z"/></g>
<g><path style="opacity:0.038" fill="#c0c0c0" d="M 179.5,536.5 C 201.673,536.169 223.673,536.503 245.5,537.5C 224.966,537.184 204.466,537.517 184,538.5C 182.272,538.101 180.772,537.434 179.5,536.5 Z"/></g>
<g><path style="opacity:0.604" fill="#f8f8f8" d="M 42.5,558.5 C 33.4754,558.832 24.4754,558.498 15.5,557.5C 17.5235,556.145 19.5235,555.812 21.5,556.5C 22.2868,555.758 22.9535,554.925 23.5,554C 21.5594,553.257 19.7261,553.424 18,554.5C 17.0754,553.953 16.2421,553.287 15.5,552.5C 25.2028,552.151 34.5361,551.151 43.5,549.5C 101.831,548.63 160.164,547.963 218.5,547.5C 219.516,550.2 219.516,552.866 218.5,555.5C 159.849,557.452 101.182,558.452 42.5,558.5 Z"/></g>
<g><path style="opacity:0.595" fill="#f6f6f6" d="M 1171.5,547.5 C 1239.85,548.019 1308.18,549.186 1376.5,551C 1378.71,553.209 1379.04,555.709 1377.5,558.5C 1308.83,558.919 1240.16,557.919 1171.5,555.5C 1170.48,552.866 1170.48,550.2 1171.5,547.5 Z"/></g>
<g><path style="opacity:0.29" fill="#d7d7d7" d="M 43.5,549.5 C 34.5361,551.151 25.2028,552.151 15.5,552.5C 16.2421,553.287 17.0754,553.953 18,554.5C 19.7261,553.424 21.5594,553.257 23.5,554C 22.9535,554.925 22.2868,555.758 21.5,556.5C 19.5235,555.812 17.5235,556.145 15.5,557.5C 24.4754,558.498 33.4754,558.832 42.5,558.5C 32.6753,559.658 22.6753,559.825 12.5,559C 10.9226,556.043 11.2559,553.376 13.5,551C 23.4945,550.324 33.4945,549.824 43.5,549.5 Z"/></g>
<g><path style="opacity:0.608" fill="#f5f5f5" d="M 196.5,567.5 C 220.167,567.5 243.833,567.5 267.5,567.5C 267.5,570.5 267.5,573.5 267.5,576.5C 189.318,577.425 111.152,578.759 33,580.5C 31.5643,580.441 30.231,580.108 29,579.5C 28.2228,576.571 28.3895,573.737 29.5,571C 85.3351,570.108 141.002,568.941 196.5,567.5 Z"/></g>
<g><path style="opacity:0.608" fill="#f9f9f9" d="M 1315.5,569.5 C 1322.43,571.304 1329.77,572.137 1337.5,572C 1337.17,572.333 1336.83,572.667 1336.5,573C 1337.33,573.167 1338.17,573.333 1339,573.5C 1345.14,572.439 1351.31,572.273 1357.5,573C 1358.41,574.699 1358.74,576.533 1358.5,578.5C 1342.83,578.5 1327.17,578.5 1311.5,578.5C 1248.49,578.329 1185.49,577.663 1122.5,576.5C 1122.5,573.5 1122.5,570.5 1122.5,567.5C 1186.83,568.309 1251.16,568.976 1315.5,569.5 Z"/></g>
<g><path style="opacity:0.14" fill="#bdbdbd" d="M 1315.5,569.5 C 1330.49,570.117 1345.49,570.617 1360.5,571C 1362.46,573.121 1362.96,575.621 1362,578.5C 1360.7,579.98 1359.03,580.646 1357,580.5C 1341.68,579.888 1326.51,579.222 1311.5,578.5C 1327.17,578.5 1342.83,578.5 1358.5,578.5C 1358.74,576.533 1358.41,574.699 1357.5,573C 1351.31,572.273 1345.14,572.439 1339,573.5C 1338.17,573.333 1337.33,573.167 1336.5,573C 1336.83,572.667 1337.17,572.333 1337.5,572C 1329.77,572.137 1322.43,571.304 1315.5,569.5 Z"/></g>
<g><path style="opacity:0.603" fill="#f5f5f5" d="M 304.5,615.5 C 323.167,615.5 341.833,615.5 360.5,615.5C 371.122,624.448 381.789,633.448 392.5,642.5C 393.55,646.172 392.217,648.839 388.5,650.5C 376.881,641.388 365.381,632.055 354,622.5C 304.574,624.232 255.074,625.065 205.5,625C 193.981,614.647 182.315,604.48 170.5,594.5C 169.498,590.621 170.998,587.954 175,586.5C 185.822,595.987 196.655,605.487 207.5,615C 208.609,615.638 209.775,616.138 211,616.5C 242.135,615.511 273.302,615.178 304.5,615.5 Z"/></g>
<g><path style="opacity:0.596" fill="#f5f5f5" d="M 1013.5,615.5 C 1032.17,615.5 1050.83,615.5 1069.5,615.5C 1100.7,615.178 1131.86,615.511 1163,616.5C 1164.22,616.138 1165.39,615.638 1166.5,615C 1177.34,605.487 1188.18,595.987 1199,586.5C 1203,587.954 1204.5,590.621 1203.5,594.5C 1191.69,604.48 1180.02,614.647 1168.5,625C 1118.93,625.065 1069.43,624.232 1020,622.5C 1008.62,632.055 997.119,641.388 985.5,650.5C 981.783,648.839 980.45,646.172 981.5,642.5C 992.211,633.448 1002.88,624.448 1013.5,615.5 Z"/></g>
<g><path style="opacity:0.073" fill="#d6d6d6" d="M 360.5,615.5 C 341.833,615.5 323.167,615.5 304.5,615.5C 320.004,614.737 335.671,614.07 351.5,613.5C 354.814,613.343 357.814,614.009 360.5,615.5 Z"/></g>
<g><path style="opacity:0.073" fill="#d6d6d6" d="M 1069.5,615.5 C 1050.83,615.5 1032.17,615.5 1013.5,615.5C 1016.19,614.009 1019.19,613.343 1022.5,613.5C 1038.33,614.07 1054,614.737 1069.5,615.5 Z"/></g>
<g><path style="opacity:0.648" fill="#f8f8f8" d="M 297.5,626.5 C 300.93,626.107 304.096,626.773 307,628.5C 351.866,727.033 423.7,798.533 522.5,843C 636.76,890.082 750.426,888.749 863.5,839C 958.193,793.806 1027.19,723.306 1070.5,627.5C 1073.76,626.583 1077.09,626.249 1080.5,626.5C 1080.74,630.41 1079.9,634.077 1078,637.5C 1016.32,764.085 917.15,844.251 780.5,878C 640.105,905.197 515.439,873.197 406.5,782C 358.324,738.696 321.324,687.529 295.5,628.5C 296.243,627.818 296.909,627.151 297.5,626.5 Z"/></g>
<g><path style="opacity:0.834" fill="#fbfbfb" d="M 539.5,684.5 C 556.496,685.686 573.496,685.686 590.5,684.5C 590.5,687.833 590.5,691.167 590.5,694.5C 587.351,694.211 584.351,694.711 581.5,696C 580.424,697.726 580.257,699.559 581,701.5C 587.251,710.999 593.251,720.666 599,730.5C 606.334,719.836 613.168,708.836 619.5,697.5C 618.91,696.201 617.91,695.368 616.5,695C 614.19,694.503 611.857,694.337 609.5,694.5C 609.5,691.167 609.5,687.833 609.5,684.5C 622.167,685.833 634.833,685.833 647.5,684.5C 647.5,687.833 647.5,691.167 647.5,694.5C 640.86,694.211 635.36,696.545 631,701.5C 622.57,714.035 614.403,726.702 606.5,739.5C 618.069,758.297 629.902,776.964 642,795.5C 649.732,800.074 656.732,799.074 663,792.5C 672.898,777.858 682.398,763.025 691.5,748C 681.397,730.303 670.397,713.136 658.5,696.5C 655.752,695.187 652.919,694.187 650,693.5C 649.333,690.833 649.333,688.167 650,685.5C 666.763,685.747 683.596,685.414 700.5,684.5C 700.5,687.833 700.5,691.167 700.5,694.5C 698.143,694.337 695.81,694.503 693.5,695C 691.59,695.408 690.59,696.575 690.5,698.5C 696.412,709.325 702.578,719.992 709,730.5C 716.347,719.803 723.18,708.803 729.5,697.5C 728.91,696.201 727.91,695.368 726.5,695C 724.19,694.503 721.857,694.337 719.5,694.5C 719.5,691.167 719.5,687.833 719.5,684.5C 748.491,684.805 777.491,684.805 806.5,684.5C 806.5,687.833 806.5,691.167 806.5,694.5C 803.393,694.351 800.393,694.851 797.5,696C 796.426,696.739 795.759,697.739 795.5,699C 803.75,724.753 812.584,750.253 822,775.5C 829.364,752.037 837.03,728.703 845,705.5C 845.821,702.446 845.655,699.446 844.5,696.5C 841.009,694.906 837.342,694.239 833.5,694.5C 833.5,691.167 833.5,687.833 833.5,684.5C 845.5,685.833 857.5,685.833 869.5,684.5C 869.5,687.833 869.5,691.167 869.5,694.5C 865.495,694.557 861.995,695.89 859,698.5C 846.441,735.947 833.607,773.28 820.5,810.5C 816.15,810.77 811.983,810.103 808,808.5C 795.304,772.765 782.304,737.098 769,701.5C 764.874,695.03 759.041,692.863 751.5,695C 746.981,695.519 743.481,697.686 741,701.5C 732.57,714.035 724.403,726.702 716.5,739.5C 728.072,758.973 740.405,777.973 753.5,796.5C 755.943,798.055 758.61,798.722 761.5,798.5C 761.5,801.833 761.5,805.167 761.5,808.5C 744.167,808.5 726.833,808.5 709.5,808.5C 709.216,805.223 709.549,802.057 710.5,799C 714.17,798.452 717.837,797.952 721.5,797.5C 721.741,794.206 720.908,791.206 719,788.5C 712.333,777.833 705.667,767.167 699,756.5C 690.506,769.329 682.673,782.496 675.5,796C 678.406,797.847 681.573,799.014 685,799.5C 685.498,802.482 685.665,805.482 685.5,808.5C 656.833,808.5 628.167,808.5 599.5,808.5C 599.5,805.167 599.5,801.833 599.5,798.5C 602.728,798.701 605.895,798.367 609,797.5C 610.732,797.266 611.566,796.266 611.5,794.5C 603.838,781.987 596.338,769.321 589,756.5C 580.651,769.201 572.817,782.201 565.5,795.5C 566.09,796.799 567.09,797.632 568.5,798C 570.764,798.236 572.931,798.736 575,799.5C 575.498,802.482 575.665,805.482 575.5,808.5C 562.833,808.5 550.167,808.5 537.5,808.5C 537.5,805.167 537.5,801.833 537.5,798.5C 543.694,799 548.861,797 553,792.5C 562.763,777.965 572.263,763.298 581.5,748.5C 580.946,746.39 580.112,744.39 579,742.5C 570,728.5 561,714.5 552,700.5C 549.078,695.956 544.911,693.956 539.5,694.5C 539.5,691.167 539.5,687.833 539.5,684.5 Z"/></g>
<g><path style="opacity:0.705" fill="#f9f9f9" d="M 600.5,999.5 C 593.833,999.5 587.167,999.5 580.5,999.5C 580.175,982.923 580.508,966.423 581.5,950C 574.677,948.54 567.677,948.04 560.5,948.5C 560.5,943.5 560.5,938.5 560.5,933.5C 580.5,933.5 600.5,933.5 620.5,933.5C 620.5,938.5 620.5,943.5 620.5,948.5C 613.833,948.5 607.167,948.5 600.5,948.5C 600.5,965.5 600.5,982.5 600.5,999.5 Z"/></g>
<g><path style="opacity:0.72" fill="#f9f9f9" d="M 671.5,999.5 C 664.833,999.5 658.167,999.5 651.5,999.5C 651.193,995.228 650.027,991.228 648,987.5C 644,988.833 640,988.833 636,987.5C 633.288,990.994 631.788,994.994 631.5,999.5C 624.833,999.5 618.167,999.5 611.5,999.5C 618.38,977.783 624.38,955.783 629.5,933.5C 637.528,933.169 645.528,933.502 653.5,934.5C 659.503,956.191 665.503,977.858 671.5,999.5 Z M 641.5,959.5 C 643.154,963.268 643.988,967.268 644,971.5C 642.667,970.167 641.333,970.167 640,971.5C 639.5,971 639,970.5 638.5,970C 639.872,966.595 640.872,963.095 641.5,959.5 Z"/></g>
<g><path style="opacity:0.724" fill="#f9f9f9" d="M 710.5,999.5 C 702.167,999.5 693.833,999.5 685.5,999.5C 679.472,995.967 674.972,990.967 672,984.5C 671.333,973.167 671.333,961.833 672,950.5C 679.435,935.79 691.268,930.29 707.5,934C 712.579,936.294 717.079,939.461 721,943.5C 722.187,945.044 722.52,946.711 722,948.5C 718.193,950.287 714.359,952.12 710.5,954C 707.147,954.891 704.813,953.725 703.5,950.5C 698.749,947.483 694.583,948.15 691,952.5C 690.333,962.5 690.333,972.5 691,982.5C 694.257,985.428 698.091,986.262 702.5,985C 704.439,984.092 705.439,982.592 705.5,980.5C 711.852,981.015 717.519,983.181 722.5,987C 719.991,992.674 715.991,996.841 710.5,999.5 Z"/></g>
<g><path style="opacity:0.74" fill="#fafafa" d="M 780.5,999.5 C 774.167,999.5 767.833,999.5 761.5,999.5C 756.292,989.07 750.792,978.736 745,968.5C 744.5,978.828 744.334,989.161 744.5,999.5C 738.167,999.5 731.833,999.5 725.5,999.5C 725.333,977.831 725.5,956.164 726,934.5C 732.076,933.524 738.242,933.19 744.5,933.5C 749.779,944.72 755.612,955.72 762,966.5C 762.5,955.505 762.667,944.505 762.5,933.5C 768.5,933.5 774.5,933.5 780.5,933.5C 780.5,955.5 780.5,977.5 780.5,999.5 Z"/></g>
<g><path style="opacity:0.674" fill="#f9f9f9" d="M 842.5,999.5 C 836.167,999.5 829.833,999.5 823.5,999.5C 822.505,996.179 821.505,992.846 820.5,989.5C 815.617,988.809 810.784,988.143 806,987.5C 804.523,991.365 803.357,995.365 802.5,999.5C 796.167,999.5 789.833,999.5 783.5,999.5C 788.888,977.735 794.721,956.068 801,934.5C 808.747,933.518 816.58,933.185 824.5,933.5C 830.511,955.514 836.511,977.514 842.5,999.5 Z M 812.5,958.5 C 813.868,962.298 814.868,966.298 815.5,970.5C 813.833,970.5 812.167,970.5 810.5,970.5C 810.958,966.462 811.624,962.462 812.5,958.5 Z"/></g>
<g><path style="opacity:0.575" fill="#dfdfdf" d="M 860.5,962.5 C 964.167,962.333 1067.83,962.5 1171.5,963C 1175.02,965.237 1175.35,967.904 1172.5,971C 1068.83,971.667 965.167,971.667 861.5,971C 859.164,968.462 858.83,965.629 860.5,962.5 Z"/></g>
<g><path style="opacity:0.577" fill="#fafafa" d="M 226.5,965.5 C 331.167,965.5 435.833,965.5 540.5,965.5C 540.5,968.5 540.5,971.5 540.5,974.5C 435.833,974.5 331.167,974.5 226.5,974.5C 226.5,971.5 226.5,968.5 226.5,965.5 Z"/></g>
</svg>
